<?xml version="1.0" encoding="UTF-8" standalone="no"?>
<svg width="69px" height="89px" viewBox="0 0 69 89" version="1.1" xmlns="http://www.w3.org/2000/svg" xmlns:xlink="http://www.w3.org/1999/xlink">
    <!-- Generator: Sketch 3.7.2 (28276) - http://www.bohemiancoding.com/sketch -->
    <title>B4P</title>
    <desc>Created with Sketch.</desc>
    <defs></defs>
    <g id="Page-1" stroke="none" stroke-width="1" fill="none" fill-rule="evenodd">
        <g id="B4P">
            <path d="M26.2,0.52 C27.6800074,0.52 29.1599926,0.6799984 30.64,1 C32.1200074,1.3200016 33.4499941,1.8499963 34.63,2.59 C35.8100059,3.3300037 36.7699963,4.2899941 37.51,5.47 C38.2500037,6.6500059 38.62,8.0999914 38.62,9.82 C38.62,12.7000144 37.7800084,15.0599908 36.1,16.9 C34.4199916,18.7400092 32.2400134,19.9999966 29.56,20.68 L29.56,20.8 C31.7200108,21.1600018 33.5299927,22.1299921 34.99,23.71 C36.4500073,25.2900079 37.18,27.3399874 37.18,29.86 C37.18,32.0200108 36.7300045,33.9199918 35.83,35.56 C34.9299955,37.2000082 33.680008,38.5699945 32.08,39.67 C30.479992,40.7700055 28.5600112,41.5999972 26.32,42.16 C24.0799888,42.7200028 21.6400132,43 19,43 L2.08,43 L9.58,0.52 L26.2,0.52 Z M17.62,8.5 L16.06,17.62 L22.18,17.62 C22.9000036,17.62 23.6499961,17.5400008 24.43,17.38 C25.2100039,17.2199992 25.9199968,16.940002 26.56,16.54 C27.2000032,16.139998 27.7299979,15.6000034 28.15,14.92 C28.5700021,14.2399966 28.78,13.400005 28.78,12.4 C28.78,10.999993 28.2400054,10.000003 27.16,9.4 C26.0799946,8.799997 24.7200082,8.5 23.08,8.5 L17.62,8.5 Z M14.74,24.82 L13,34.96 L18.82,34.96 C19.9400056,34.96 20.999995,34.860001 22,34.66 C23.000005,34.459999 23.8899961,34.1400022 24.67,33.7 C25.4500039,33.2599978 26.0699977,32.6600038 26.53,31.9 C26.9900023,31.1399962 27.22,30.2200054 27.22,29.14 C27.22,27.7799932 26.7000052,26.7200038 25.66,25.96 C24.6199948,25.1999962 23.1400096,24.82 21.22,24.82 L14.74,24.82 Z" id="B" fill="#03096B"></path>
            <path d="M10.7192783,46.8814811 L13.4107545,25.3926205 C13.4782426,24.8537923 13.0982546,24.3251793 12.5597362,24.230224 L6.55786301,23.1719318 C6.03310844,23.0794034 5.50524325,23.4397848 5.4095855,23.9822868 L0.173203663,53.679284 C0.0789200628,54.2139928 0.450318455,54.6628194 1.00581442,54.6643597 L4.65919304,54.6744897 C4.92210074,54.6789254 5.18318988,54.6814812 5.43579861,54.6814812 L7.18068016,54.6814812 L8.73562586,54.6857927 C8.76886502,54.6858849 8.80188548,54.6844244 8.83461099,54.6814812 L41.4348278,54.6814812 L41.4348278,46.8814811 L10.7192783,46.8814811 Z" id="4" fill="#03096B"></path>
            <g id="P-conntected" transform="translate(38.000000, 18.000000)"></g>
            <path d="M40.5526304,22.1387507 C40.5526304,21.5870975 40.985647,21.0637381 41.5372499,20.9667258 L49.6454875,19.5407017 C50.1892778,19.4450634 50.631993,19.8168754 50.6344738,20.3756307 L50.8061022,41.1603848 C50.8152844,41.7170315 50.8305779,42.6140282 50.8402494,43.1632119 L50.9098581,47.1158398 C50.919613,47.669757 50.4817248,48.1856742 49.9327328,48.2680344 L41.5474185,49.5260053 C40.9980122,49.6084276 40.5526304,49.2270219 40.5526304,48.6763876 L40.5526304,22.1387507 Z" id="Rectangle-2" fill="#03096B" transform="translate(45.740076, 34.521389) rotate(-350.000000) translate(-45.740076, -34.521389) "></path>
            <path d="M52.56,46.52 C57.560025,46.52 61.3899867,47.5599896 64.05,49.64 C66.7100133,51.7200104 68.04,54.6199814 68.04,58.34 C68.04,60.8600126 67.6000044,63.0399908 66.72,64.88 C65.8399956,66.7200092 64.5800082,68.2299941 62.94,69.41 C61.2999918,70.5900059 59.3300115,71.4599972 57.03,72.02 C54.7299885,72.5800028 52.1600142,72.86 49.32,72.86 L43.86,72.86 L40.98,89 L31.08,89 L38.58,46.52 L52.56,46.52 Z M49.5,64.94 C52.100013,64.94 54.1699923,64.5300041 55.71,63.71 C57.2500077,62.8899959 58.02,61.4400104 58.02,59.36 C58.02,58.4399954 57.8500017,57.6700031 57.51,57.05 C57.1699983,56.4299969 56.700003,55.9400018 56.1,55.58 C55.499997,55.2199982 54.7800042,54.9700007 53.94,54.83 C53.0999958,54.6899993 52.180005,54.62 51.18,54.62 L47.1,54.62 L45.24,64.94 L49.5,64.94 Z" id="P" fill="#03096B"></path>
        </g>
    </g>
</svg>